# xmcd
#
# Track frame offsets: 
#        150
#        14522
#        59365
#        79137
#        113360
#        130990
#        170737
#        190160
#
# Disc length: 2635 seconds
#
# Revision: 2
# Processed by: cddbd v1.5.2PL0 Copyright (c) Steve Scherf et al.
# Submitted via: ExactAudioCopyFreeDBPlugin 1.0
#
DISCID=650a4908
DTITLE=Various Artist - 神秘の世界エルハザード CDスペシャル「陣内の世界エルハザード」 (Mystic Worl
DTITLE=d EL Hazard CD Special "Elena's World El Hazard")
DYEAR=1995
DGENRE=Anime
TTITLE0=置鮎龍太郎 - 征服王・陣内克彦 (Conquest King, Katsuhiko Jinnai)
TTITLE1=ドラマ「帝王への道・その第一歩」(Drama "The Way to the Emperor · The First Ste
TTITLE1=p")
TTITLE2=夏樹リオ - 銭の花 (Qian flowers)
TTITLE3=ドラマ「帝王への道・その第二歩」(Drama "The Way to the Emperor · The Second St
TTITLE3=ep")
TTITLE4=山本正之 - バグロム数え歌 (Bugrom count)
TTITLE5=ドラマ「帝王への道・その第三歩」(Drama "The Way to the Emperor · The Third Ste
TTITLE5=p")
TTITLE6=岩永哲哉 - 冒険 (adventure)
TTITLE7=ドラマ「帝王への道・その第四歩」(Drama "The Way to the Emperor · The Fourth St
TTITLE7=ep")
EXTD=
EXTT0=
EXTT1=
EXTT2=
EXTT3=
EXTT4=
EXTT5=
EXTT6=
EXTT7=
PLAYORDER=
